<mxfile host="Electron" modified="2024-06-14T13:20:44.974Z" agent="Mozilla/5.0 (X11; Linux x86_64) AppleWebKit/537.36 (KHTML, like Gecko) draw.io/24.4.8 Chrome/124.0.6367.207 Electron/30.0.6 Safari/537.36" etag="vqiJ_AoNObjTLXoTk0Fl" version="24.3.1" type="device">
  <diagram name="Page-1" id="L-C9a64Ln4dAdznqtOv8">
    <mxGraphModel dx="2535" dy="837" grid="1" gridSize="10" guides="1" tooltips="1" connect="1" arrows="1" fold="1" page="1" pageScale="1" pageWidth="1169" pageHeight="827" math="0" shadow="0">
      <root>
        <mxCell id="0" />
        <mxCell id="1" parent="0" />
        <mxCell id="eM-ZfgMRJev5hYLbkpdu-4" value="Districts" style="text;html=1;align=center;verticalAlign=middle;resizable=0;points=[];autosize=1;strokeColor=none;fillColor=none;fontSize=30;fontFamily=Times New Roman;" parent="1" vertex="1">
          <mxGeometry x="225" y="210" width="130" height="50" as="geometry" />
        </mxCell>
        <mxCell id="2zSMVQ2vW_HQd2-LEBrB-11" value="-l&lt;sub style=&quot;font-size: 19px;&quot;&gt;1&lt;/sub&gt;" style="text;html=1;align=center;verticalAlign=middle;resizable=0;points=[];autosize=1;strokeColor=none;fillColor=none;fontSize=19;fontFamily=Times New Roman;" parent="1" vertex="1">
          <mxGeometry x="310" y="266.84000000000003" width="40" height="40" as="geometry" />
        </mxCell>
        <mxCell id="2zSMVQ2vW_HQd2-LEBrB-12" value="-l&lt;sub&gt;2&lt;/sub&gt;" style="text;html=1;align=center;verticalAlign=middle;resizable=0;points=[];autosize=1;strokeColor=none;fillColor=none;fontSize=19;fontFamily=Times New Roman;" parent="1" vertex="1">
          <mxGeometry x="315" y="383.33" width="40" height="40" as="geometry" />
        </mxCell>
        <mxCell id="2zSMVQ2vW_HQd2-LEBrB-13" value="-l&lt;sub&gt;3&lt;/sub&gt;" style="text;html=1;align=center;verticalAlign=middle;resizable=0;points=[];autosize=1;strokeColor=none;fillColor=none;fontSize=19;fontFamily=Times New Roman;" parent="1" vertex="1">
          <mxGeometry x="315" y="500" width="40" height="40" as="geometry" />
        </mxCell>
        <mxCell id="2zSMVQ2vW_HQd2-LEBrB-14" value="-l&lt;span style=&quot;font-size: 15.8333px;&quot;&gt;&lt;sub&gt;10&lt;/sub&gt;&lt;/span&gt;" style="text;html=1;align=center;verticalAlign=middle;resizable=0;points=[];autosize=1;strokeColor=none;fillColor=none;fontSize=19;fontFamily=Times New Roman;" parent="1" vertex="1">
          <mxGeometry x="305" y="640" width="50" height="40" as="geometry" />
        </mxCell>
        <mxCell id="2zSMVQ2vW_HQd2-LEBrB-32" value="" style="group;rotation=15;" parent="1" vertex="1" connectable="0">
          <mxGeometry x="50" y="413.5" width="180" height="146.5" as="geometry" />
        </mxCell>
        <mxCell id="2zSMVQ2vW_HQd2-LEBrB-25" value="" style="endArrow=classic;html=1;rounded=0;fontFamily=Times New Roman;" parent="2zSMVQ2vW_HQd2-LEBrB-32" edge="1">
          <mxGeometry width="50" height="50" relative="1" as="geometry">
            <mxPoint x="134" y="45" as="sourcePoint" />
            <mxPoint x="193" y="25" as="targetPoint" />
          </mxGeometry>
        </mxCell>
        <mxCell id="2zSMVQ2vW_HQd2-LEBrB-26" value="" style="endArrow=none;html=1;rounded=0;endFill=0;fontFamily=Times New Roman;" parent="2zSMVQ2vW_HQd2-LEBrB-32" edge="1">
          <mxGeometry width="50" height="50" relative="1" as="geometry">
            <mxPoint x="30" y="80" as="sourcePoint" />
            <mxPoint x="90" y="60" as="targetPoint" />
          </mxGeometry>
        </mxCell>
        <mxCell id="2zSMVQ2vW_HQd2-LEBrB-27" value="" style="group;rotation=15;" parent="2zSMVQ2vW_HQd2-LEBrB-32" vertex="1" connectable="0">
          <mxGeometry x="85" y="31" width="55" height="55" as="geometry" />
        </mxCell>
        <mxCell id="2zSMVQ2vW_HQd2-LEBrB-28" value="" style="triangle;whiteSpace=wrap;html=1;rotation=-20;fontFamily=Times New Roman;fontSize=14;" parent="2zSMVQ2vW_HQd2-LEBrB-27" vertex="1">
          <mxGeometry x="45" y="7" width="10" height="13.33" as="geometry" />
        </mxCell>
        <mxCell id="2zSMVQ2vW_HQd2-LEBrB-29" value="" style="triangle;whiteSpace=wrap;html=1;rotation=-20;fontFamily=Times New Roman;" parent="2zSMVQ2vW_HQd2-LEBrB-27" vertex="1">
          <mxGeometry x="1" y="21" width="10" height="13.33" as="geometry" />
        </mxCell>
        <mxCell id="2zSMVQ2vW_HQd2-LEBrB-30" value="" style="endArrow=none;dashed=1;html=1;dashPattern=1 3;strokeWidth=2;rounded=0;fontFamily=Times New Roman;fontSize=14;" parent="2zSMVQ2vW_HQd2-LEBrB-27" edge="1">
          <mxGeometry width="50" height="50" relative="1" as="geometry">
            <mxPoint x="11" y="27" as="sourcePoint" />
            <mxPoint x="45" y="15" as="targetPoint" />
          </mxGeometry>
        </mxCell>
        <mxCell id="2zSMVQ2vW_HQd2-LEBrB-53" value="&lt;span style=&quot;color: rgb(0, 0, 0); font-family: &amp;quot;Times New Roman&amp;quot;; font-style: normal; font-variant-ligatures: normal; font-variant-caps: normal; font-weight: 400; letter-spacing: normal; orphans: 2; text-align: center; text-indent: 0px; text-transform: none; widows: 2; word-spacing: 0px; -webkit-text-stroke-width: 0px; white-space: nowrap; background-color: rgb(251, 251, 251); text-decoration-thickness: initial; text-decoration-style: initial; text-decoration-color: initial; float: none; display: inline !important; font-size: 14px;&quot;&gt;u&lt;sub&gt;3&lt;/sub&gt;&lt;/span&gt;&lt;span style=&quot;color: rgb(0, 0, 0); font-family: &amp;quot;Times New Roman&amp;quot;; font-size: 14px; font-style: normal; font-variant-ligatures: normal; font-variant-caps: normal; font-weight: 400; letter-spacing: normal; orphans: 2; text-align: center; text-indent: 0px; text-transform: none; widows: 2; word-spacing: 0px; -webkit-text-stroke-width: 0px; white-space: nowrap; background-color: rgb(251, 251, 251); text-decoration-thickness: initial; text-decoration-style: initial; text-decoration-color: initial; float: none; display: inline !important;&quot;&gt;-l&lt;sub&gt;3&lt;/sub&gt;&lt;/span&gt;" style="text;whiteSpace=wrap;html=1;fontSize=14;" parent="2zSMVQ2vW_HQd2-LEBrB-32" vertex="1">
          <mxGeometry x="100" y="106.5" width="50" height="40" as="geometry" />
        </mxCell>
        <mxCell id="eM-ZfgMRJev5hYLbkpdu-2" value="S" style="ellipse;whiteSpace=wrap;html=1;aspect=fixed;fontSize=30;fontFamily=Times New Roman;" parent="1" vertex="1">
          <mxGeometry x="10" y="460" width="60" height="60" as="geometry" />
        </mxCell>
        <mxCell id="2zSMVQ2vW_HQd2-LEBrB-45" value="" style="group;rotation=45;" parent="1" vertex="1" connectable="0">
          <mxGeometry x="50" y="460" width="180" height="120" as="geometry" />
        </mxCell>
        <mxCell id="2zSMVQ2vW_HQd2-LEBrB-46" value="" style="endArrow=classic;html=1;rounded=0;fontFamily=Times New Roman;" parent="2zSMVQ2vW_HQd2-LEBrB-45" edge="1">
          <mxGeometry width="50" height="50" relative="1" as="geometry">
            <mxPoint x="136" y="69" as="sourcePoint" />
            <mxPoint x="197" y="81" as="targetPoint" />
          </mxGeometry>
        </mxCell>
        <mxCell id="2zSMVQ2vW_HQd2-LEBrB-47" value="" style="endArrow=none;html=1;rounded=0;endFill=0;fontFamily=Times New Roman;" parent="2zSMVQ2vW_HQd2-LEBrB-45" edge="1">
          <mxGeometry width="50" height="50" relative="1" as="geometry">
            <mxPoint x="28" y="47" as="sourcePoint" />
            <mxPoint x="90" y="60" as="targetPoint" />
          </mxGeometry>
        </mxCell>
        <mxCell id="2zSMVQ2vW_HQd2-LEBrB-48" value="" style="group;rotation=45;" parent="2zSMVQ2vW_HQd2-LEBrB-45" vertex="1" connectable="0">
          <mxGeometry x="84" y="43" width="54.83729433944936" height="55" as="geometry" />
        </mxCell>
        <mxCell id="2zSMVQ2vW_HQd2-LEBrB-49" value="" style="triangle;whiteSpace=wrap;html=1;rotation=10;fontFamily=Times New Roman;fontSize=14;" parent="2zSMVQ2vW_HQd2-LEBrB-48" vertex="1">
          <mxGeometry x="47" y="20" width="10" height="13.33" as="geometry" />
        </mxCell>
        <mxCell id="2zSMVQ2vW_HQd2-LEBrB-50" value="" style="triangle;whiteSpace=wrap;html=1;rotation=10;fontFamily=Times New Roman;" parent="2zSMVQ2vW_HQd2-LEBrB-48" vertex="1">
          <mxGeometry x="2" y="10" width="10" height="13.33" as="geometry" />
        </mxCell>
        <mxCell id="2zSMVQ2vW_HQd2-LEBrB-51" value="" style="endArrow=none;dashed=1;html=1;dashPattern=1 3;strokeWidth=2;rounded=0;fontFamily=Times New Roman;fontSize=14;" parent="2zSMVQ2vW_HQd2-LEBrB-48" edge="1">
          <mxGeometry width="50" height="50" relative="1" as="geometry">
            <mxPoint x="12" y="18" as="sourcePoint" />
            <mxPoint x="47" y="25" as="targetPoint" />
          </mxGeometry>
        </mxCell>
        <mxCell id="2zSMVQ2vW_HQd2-LEBrB-72" value="" style="group;rotation=75;" parent="1" vertex="1" connectable="0">
          <mxGeometry x="60" y="540" width="180" height="120" as="geometry" />
        </mxCell>
        <mxCell id="2zSMVQ2vW_HQd2-LEBrB-73" value="" style="endArrow=classic;html=1;rounded=0;fontFamily=Times New Roman;" parent="2zSMVQ2vW_HQd2-LEBrB-72" edge="1">
          <mxGeometry width="50" height="50" relative="1" as="geometry">
            <mxPoint x="125" y="91" as="sourcePoint" />
            <mxPoint x="171" y="131" as="targetPoint" />
          </mxGeometry>
        </mxCell>
        <mxCell id="2zSMVQ2vW_HQd2-LEBrB-74" value="" style="endArrow=none;html=1;rounded=0;endFill=0;fontFamily=Times New Roman;" parent="2zSMVQ2vW_HQd2-LEBrB-72" edge="1">
          <mxGeometry width="50" height="50" relative="1" as="geometry">
            <mxPoint x="9" y="-11" as="sourcePoint" />
            <mxPoint x="90" y="60" as="targetPoint" />
          </mxGeometry>
        </mxCell>
        <mxCell id="2zSMVQ2vW_HQd2-LEBrB-75" value="" style="group;rotation=75;" parent="2zSMVQ2vW_HQd2-LEBrB-72" vertex="1" connectable="0">
          <mxGeometry x="78" y="53" width="59" height="59.65999999999997" as="geometry" />
        </mxCell>
        <mxCell id="2zSMVQ2vW_HQd2-LEBrB-76" value="" style="triangle;whiteSpace=wrap;html=1;rotation=40;fontFamily=Times New Roman;fontSize=14;" parent="2zSMVQ2vW_HQd2-LEBrB-75" vertex="1">
          <mxGeometry x="43" y="33" width="10" height="13.33" as="geometry" />
        </mxCell>
        <mxCell id="2zSMVQ2vW_HQd2-LEBrB-77" value="" style="triangle;whiteSpace=wrap;html=1;rotation=40;fontFamily=Times New Roman;fontSize=14;" parent="2zSMVQ2vW_HQd2-LEBrB-75" vertex="1">
          <mxGeometry x="9" y="1" width="10" height="13.33" as="geometry" />
        </mxCell>
        <mxCell id="2zSMVQ2vW_HQd2-LEBrB-78" value="" style="endArrow=none;dashed=1;html=1;dashPattern=1 3;strokeWidth=2;rounded=0;fontFamily=Times New Roman;fontSize=14;" parent="2zSMVQ2vW_HQd2-LEBrB-75" edge="1">
          <mxGeometry width="50" height="50" relative="1" as="geometry">
            <mxPoint x="17" y="11" as="sourcePoint" />
            <mxPoint x="44" y="35" as="targetPoint" />
          </mxGeometry>
        </mxCell>
        <mxCell id="2zSMVQ2vW_HQd2-LEBrB-80" value="&lt;span style=&quot;color: rgb(0, 0, 0); font-family: &amp;quot;Times New Roman&amp;quot;; font-size: 14px; font-style: normal; font-variant-ligatures: normal; font-variant-caps: normal; font-weight: 400; letter-spacing: normal; orphans: 2; text-align: center; text-indent: 0px; text-transform: none; widows: 2; word-spacing: 0px; -webkit-text-stroke-width: 0px; white-space: nowrap; background-color: rgb(251, 251, 251); text-decoration-thickness: initial; text-decoration-style: initial; text-decoration-color: initial; float: none; display: inline !important;&quot;&gt;u&lt;/span&gt;&lt;span style=&quot;forced-color-adjust: none; color: rgb(0, 0, 0); font-family: &amp;quot;Times New Roman&amp;quot;; font-style: normal; font-variant-ligatures: normal; font-variant-caps: normal; font-weight: 400; letter-spacing: normal; orphans: 2; text-align: center; text-indent: 0px; text-transform: none; widows: 2; word-spacing: 0px; -webkit-text-stroke-width: 0px; white-space: nowrap; background-color: rgb(251, 251, 251); text-decoration-thickness: initial; text-decoration-style: initial; text-decoration-color: initial; font-size: 14px;&quot;&gt;&lt;sub style=&quot;forced-color-adjust: none; font-size: 14px;&quot;&gt;j&lt;/sub&gt;&lt;/span&gt;&lt;span style=&quot;color: rgb(0, 0, 0); font-family: &amp;quot;Times New Roman&amp;quot;; font-size: 14px; font-style: normal; font-variant-ligatures: normal; font-variant-caps: normal; font-weight: 400; letter-spacing: normal; orphans: 2; text-align: center; text-indent: 0px; text-transform: none; widows: 2; word-spacing: 0px; -webkit-text-stroke-width: 0px; white-space: nowrap; background-color: rgb(251, 251, 251); text-decoration-thickness: initial; text-decoration-style: initial; text-decoration-color: initial; float: none; display: inline !important;&quot;&gt;-l&lt;/span&gt;&lt;sub style=&quot;forced-color-adjust: none; color: rgb(0, 0, 0); font-family: &amp;quot;Times New Roman&amp;quot;; font-style: normal; font-variant-ligatures: normal; font-variant-caps: normal; font-weight: 400; letter-spacing: normal; orphans: 2; text-align: center; text-indent: 0px; text-transform: none; widows: 2; word-spacing: 0px; -webkit-text-stroke-width: 0px; white-space: nowrap; background-color: rgb(251, 251, 251); text-decoration-thickness: initial; text-decoration-style: initial; text-decoration-color: initial; font-size: 14px;&quot;&gt;j&lt;/sub&gt;" style="text;whiteSpace=wrap;html=1;fontSize=14;" parent="2zSMVQ2vW_HQd2-LEBrB-75" vertex="1">
          <mxGeometry x="9" y="19.659999999999968" width="50" height="40" as="geometry" />
        </mxCell>
        <mxCell id="2zSMVQ2vW_HQd2-LEBrB-87" value="" style="group" parent="1" vertex="1" connectable="0">
          <mxGeometry x="330" y="313.34" width="290" height="416.66" as="geometry" />
        </mxCell>
        <mxCell id="eM-ZfgMRJev5hYLbkpdu-15" value="C&lt;sub&gt;1&lt;/sub&gt;" style="ellipse;whiteSpace=wrap;html=1;aspect=fixed;fontSize=30;fontFamily=Times New Roman;" parent="2zSMVQ2vW_HQd2-LEBrB-87" vertex="1">
          <mxGeometry x="195" y="-23.339999999999975" width="60" height="60" as="geometry" />
        </mxCell>
        <mxCell id="eM-ZfgMRJev5hYLbkpdu-17" value="C&lt;sub&gt;2&lt;/sub&gt;" style="ellipse;whiteSpace=wrap;html=1;aspect=fixed;fontSize=30;fontFamily=Times New Roman;" parent="2zSMVQ2vW_HQd2-LEBrB-87" vertex="1">
          <mxGeometry x="195" y="86.66000000000003" width="60" height="60" as="geometry" />
        </mxCell>
        <mxCell id="eM-ZfgMRJev5hYLbkpdu-18" value="C&lt;sub&gt;3&lt;/sub&gt;" style="ellipse;whiteSpace=wrap;html=1;aspect=fixed;fontSize=30;fontFamily=Times New Roman;" parent="2zSMVQ2vW_HQd2-LEBrB-87" vertex="1">
          <mxGeometry x="195" y="196.66000000000003" width="60" height="60" as="geometry" />
        </mxCell>
        <mxCell id="eM-ZfgMRJev5hYLbkpdu-19" value="C&lt;sub&gt;n&lt;/sub&gt;" style="ellipse;whiteSpace=wrap;html=1;aspect=fixed;fontSize=25;fontFamily=Times New Roman;" parent="2zSMVQ2vW_HQd2-LEBrB-87" vertex="1">
          <mxGeometry x="195" y="356.66" width="60" height="60" as="geometry" />
        </mxCell>
        <mxCell id="eM-ZfgMRJev5hYLbkpdu-20" value="" style="endArrow=none;dashed=1;html=1;dashPattern=1 3;strokeWidth=2;rounded=0;fontFamily=Times New Roman;" parent="2zSMVQ2vW_HQd2-LEBrB-87" edge="1">
          <mxGeometry width="50" height="50" relative="1" as="geometry">
            <mxPoint x="224.58000000000004" y="336.66" as="sourcePoint" />
            <mxPoint x="225" y="276.66" as="targetPoint" />
          </mxGeometry>
        </mxCell>
        <mxCell id="2zSMVQ2vW_HQd2-LEBrB-132" value="" style="group;rotation=-20;" parent="2zSMVQ2vW_HQd2-LEBrB-87" vertex="1" connectable="0">
          <mxGeometry x="-20" y="336.66" width="240" height="13.329999999999984" as="geometry" />
        </mxCell>
        <mxCell id="2zSMVQ2vW_HQd2-LEBrB-133" value="" style="endArrow=classic;html=1;rounded=0;" parent="2zSMVQ2vW_HQd2-LEBrB-132" source="2zSMVQ2vW_HQd2-LEBrB-135" edge="1">
          <mxGeometry width="50" height="50" relative="1" as="geometry">
            <mxPoint x="7" y="48" as="sourcePoint" />
            <mxPoint x="230" y="-30" as="targetPoint" />
          </mxGeometry>
        </mxCell>
        <mxCell id="2zSMVQ2vW_HQd2-LEBrB-134" value="" style="endArrow=none;html=1;rounded=0;endFill=0;" parent="2zSMVQ2vW_HQd2-LEBrB-132" target="2zSMVQ2vW_HQd2-LEBrB-135" edge="1">
          <mxGeometry width="50" height="50" relative="1" as="geometry">
            <mxPoint x="7" y="48" as="sourcePoint" />
            <mxPoint x="233" y="-34" as="targetPoint" />
          </mxGeometry>
        </mxCell>
        <mxCell id="2zSMVQ2vW_HQd2-LEBrB-135" value="" style="triangle;whiteSpace=wrap;html=1;rotation=-20;fontFamily=Times New Roman;" parent="2zSMVQ2vW_HQd2-LEBrB-132" vertex="1">
          <mxGeometry x="129" y="-5" width="10" height="13.33" as="geometry" />
        </mxCell>
        <mxCell id="2zSMVQ2vW_HQd2-LEBrB-88" value="" style="group;rotation=15;" parent="1" vertex="1" connectable="0">
          <mxGeometry x="320" y="370" width="240" height="13.329999999999984" as="geometry" />
        </mxCell>
        <mxCell id="2zSMVQ2vW_HQd2-LEBrB-89" value="" style="endArrow=classic;html=1;rounded=0;" parent="2zSMVQ2vW_HQd2-LEBrB-88" source="2zSMVQ2vW_HQd2-LEBrB-91" edge="1">
          <mxGeometry width="50" height="50" relative="1" as="geometry">
            <mxPoint x="4" y="-24" as="sourcePoint" />
            <mxPoint x="200" y="30" as="targetPoint" />
          </mxGeometry>
        </mxCell>
        <mxCell id="2zSMVQ2vW_HQd2-LEBrB-90" value="" style="endArrow=none;html=1;rounded=0;endFill=0;" parent="2zSMVQ2vW_HQd2-LEBrB-88" target="2zSMVQ2vW_HQd2-LEBrB-91" edge="1">
          <mxGeometry width="50" height="50" relative="1" as="geometry">
            <mxPoint x="4" y="-24" as="sourcePoint" />
            <mxPoint x="236" y="38" as="targetPoint" />
          </mxGeometry>
        </mxCell>
        <mxCell id="2zSMVQ2vW_HQd2-LEBrB-91" value="" style="triangle;whiteSpace=wrap;html=1;rotation=15;fontFamily=Times New Roman;" parent="2zSMVQ2vW_HQd2-LEBrB-88" vertex="1">
          <mxGeometry x="129" y="4" width="10" height="13.33" as="geometry" />
        </mxCell>
        <mxCell id="2zSMVQ2vW_HQd2-LEBrB-92" value="" style="group" parent="1" vertex="1" connectable="0">
          <mxGeometry x="330" y="540" width="240" height="13.329999999999984" as="geometry" />
        </mxCell>
        <mxCell id="2zSMVQ2vW_HQd2-LEBrB-93" value="" style="endArrow=classic;html=1;rounded=0;" parent="2zSMVQ2vW_HQd2-LEBrB-92" source="2zSMVQ2vW_HQd2-LEBrB-95" edge="1">
          <mxGeometry width="50" height="50" relative="1" as="geometry">
            <mxPoint y="6.660000000000025" as="sourcePoint" />
            <mxPoint x="190" y="7" as="targetPoint" />
          </mxGeometry>
        </mxCell>
        <mxCell id="2zSMVQ2vW_HQd2-LEBrB-94" value="" style="endArrow=none;html=1;rounded=0;endFill=0;" parent="2zSMVQ2vW_HQd2-LEBrB-92" target="2zSMVQ2vW_HQd2-LEBrB-95" edge="1">
          <mxGeometry width="50" height="50" relative="1" as="geometry">
            <mxPoint y="6.660000000000025" as="sourcePoint" />
            <mxPoint x="240" y="6.660000000000025" as="targetPoint" />
          </mxGeometry>
        </mxCell>
        <mxCell id="2zSMVQ2vW_HQd2-LEBrB-95" value="" style="triangle;whiteSpace=wrap;html=1;rotation=0;fontFamily=Times New Roman;" parent="2zSMVQ2vW_HQd2-LEBrB-92" vertex="1">
          <mxGeometry x="130" width="10" height="13.33" as="geometry" />
        </mxCell>
        <mxCell id="2zSMVQ2vW_HQd2-LEBrB-96" value="" style="group;rotation=45;" parent="1" vertex="1" connectable="0">
          <mxGeometry x="290" y="533.33" width="240" height="13.329999999999984" as="geometry" />
        </mxCell>
        <mxCell id="2zSMVQ2vW_HQd2-LEBrB-97" value="" style="endArrow=classic;html=1;rounded=0;" parent="2zSMVQ2vW_HQd2-LEBrB-96" source="2zSMVQ2vW_HQd2-LEBrB-99" edge="1">
          <mxGeometry width="50" height="50" relative="1" as="geometry">
            <mxPoint x="35" y="-78" as="sourcePoint" />
            <mxPoint x="240" y="126.66999999999996" as="targetPoint" />
          </mxGeometry>
        </mxCell>
        <mxCell id="2zSMVQ2vW_HQd2-LEBrB-98" value="" style="endArrow=none;html=1;rounded=0;endFill=0;" parent="2zSMVQ2vW_HQd2-LEBrB-96" target="2zSMVQ2vW_HQd2-LEBrB-99" edge="1">
          <mxGeometry width="50" height="50" relative="1" as="geometry">
            <mxPoint x="35" y="-78" as="sourcePoint" />
            <mxPoint x="205" y="91" as="targetPoint" />
          </mxGeometry>
        </mxCell>
        <mxCell id="2zSMVQ2vW_HQd2-LEBrB-99" value="" style="triangle;whiteSpace=wrap;html=1;rotation=45;fontFamily=Times New Roman;" parent="2zSMVQ2vW_HQd2-LEBrB-96" vertex="1">
          <mxGeometry x="125" y="11" width="10" height="13.33" as="geometry" />
        </mxCell>
        <mxCell id="2zSMVQ2vW_HQd2-LEBrB-105" value="" style="endArrow=classic;html=1;rounded=0;" parent="1" edge="1">
          <mxGeometry width="50" height="50" relative="1" as="geometry">
            <mxPoint x="600" y="330" as="sourcePoint" />
            <mxPoint x="810" y="420" as="targetPoint" />
          </mxGeometry>
        </mxCell>
        <mxCell id="2zSMVQ2vW_HQd2-LEBrB-106" value="" style="endArrow=classic;html=1;rounded=0;" parent="1" edge="1">
          <mxGeometry width="50" height="50" relative="1" as="geometry">
            <mxPoint x="600" y="320" as="sourcePoint" />
            <mxPoint x="810" y="320" as="targetPoint" />
          </mxGeometry>
        </mxCell>
        <mxCell id="2zSMVQ2vW_HQd2-LEBrB-107" value="" style="endArrow=classic;html=1;rounded=0;" parent="1" source="2zSMVQ2vW_HQd2-LEBrB-109" edge="1">
          <mxGeometry width="50" height="50" relative="1" as="geometry">
            <mxPoint x="330" y="320" as="sourcePoint" />
            <mxPoint x="510" y="320" as="targetPoint" />
          </mxGeometry>
        </mxCell>
        <mxCell id="2zSMVQ2vW_HQd2-LEBrB-108" value="" style="endArrow=none;html=1;rounded=0;endFill=0;" parent="1" target="2zSMVQ2vW_HQd2-LEBrB-109" edge="1">
          <mxGeometry width="50" height="50" relative="1" as="geometry">
            <mxPoint x="330" y="320" as="sourcePoint" />
            <mxPoint x="570" y="320" as="targetPoint" />
          </mxGeometry>
        </mxCell>
        <mxCell id="2zSMVQ2vW_HQd2-LEBrB-109" value="" style="triangle;whiteSpace=wrap;html=1;rotation=0;fontFamily=Times New Roman;" parent="1" vertex="1">
          <mxGeometry x="460" y="313.34" width="10" height="13.33" as="geometry" />
        </mxCell>
        <mxCell id="2zSMVQ2vW_HQd2-LEBrB-110" value="" style="group" parent="1" vertex="1" connectable="0">
          <mxGeometry x="260" y="290" width="60" height="440" as="geometry" />
        </mxCell>
        <mxCell id="eM-ZfgMRJev5hYLbkpdu-3" value="D&lt;sub&gt;1&lt;/sub&gt;" style="ellipse;whiteSpace=wrap;html=1;aspect=fixed;fontSize=30;fontFamily=Times New Roman;" parent="2zSMVQ2vW_HQd2-LEBrB-110" vertex="1">
          <mxGeometry width="60" height="60" as="geometry" />
        </mxCell>
        <mxCell id="eM-ZfgMRJev5hYLbkpdu-5" value="D&lt;sub&gt;2&lt;/sub&gt;" style="ellipse;whiteSpace=wrap;html=1;aspect=fixed;fontSize=30;fontFamily=Times New Roman;" parent="2zSMVQ2vW_HQd2-LEBrB-110" vertex="1">
          <mxGeometry y="110" width="60" height="60" as="geometry" />
        </mxCell>
        <mxCell id="eM-ZfgMRJev5hYLbkpdu-6" value="D&lt;sub&gt;3&lt;/sub&gt;" style="ellipse;whiteSpace=wrap;html=1;aspect=fixed;fontSize=30;fontFamily=Times New Roman;" parent="2zSMVQ2vW_HQd2-LEBrB-110" vertex="1">
          <mxGeometry y="220" width="60" height="60" as="geometry" />
        </mxCell>
        <mxCell id="eM-ZfgMRJev5hYLbkpdu-7" value="D&lt;sub&gt;10&lt;/sub&gt;" style="ellipse;whiteSpace=wrap;html=1;aspect=fixed;fontSize=25;fontFamily=Times New Roman;" parent="2zSMVQ2vW_HQd2-LEBrB-110" vertex="1">
          <mxGeometry y="380" width="60" height="60" as="geometry" />
        </mxCell>
        <mxCell id="eM-ZfgMRJev5hYLbkpdu-8" value="" style="endArrow=none;dashed=1;html=1;dashPattern=1 3;strokeWidth=2;rounded=0;fontFamily=Times New Roman;" parent="2zSMVQ2vW_HQd2-LEBrB-110" edge="1">
          <mxGeometry width="50" height="50" relative="1" as="geometry">
            <mxPoint x="29.58000000000004" y="360" as="sourcePoint" />
            <mxPoint x="30" y="300" as="targetPoint" />
          </mxGeometry>
        </mxCell>
        <mxCell id="2zSMVQ2vW_HQd2-LEBrB-111" value="" style="group" parent="1" vertex="1" connectable="0">
          <mxGeometry x="780" y="180" width="120" height="550" as="geometry" />
        </mxCell>
        <mxCell id="eM-ZfgMRJev5hYLbkpdu-21" value="S&lt;sub&gt;1&lt;/sub&gt;" style="ellipse;whiteSpace=wrap;html=1;aspect=fixed;fontSize=30;fontFamily=Times New Roman;" parent="2zSMVQ2vW_HQd2-LEBrB-111" vertex="1">
          <mxGeometry x="35" y="110" width="60" height="60" as="geometry" />
        </mxCell>
        <mxCell id="eM-ZfgMRJev5hYLbkpdu-22" value="Sociétés" style="text;html=1;align=center;verticalAlign=middle;resizable=0;points=[];autosize=1;strokeColor=none;fillColor=none;fontSize=30;fontFamily=Times New Roman;" parent="2zSMVQ2vW_HQd2-LEBrB-111" vertex="1">
          <mxGeometry y="30" width="120" height="50" as="geometry" />
        </mxCell>
        <mxCell id="eM-ZfgMRJev5hYLbkpdu-23" value="S&lt;sub&gt;2&lt;/sub&gt;" style="ellipse;whiteSpace=wrap;html=1;aspect=fixed;fontSize=30;fontFamily=Times New Roman;" parent="2zSMVQ2vW_HQd2-LEBrB-111" vertex="1">
          <mxGeometry x="35" y="220" width="60" height="60" as="geometry" />
        </mxCell>
        <mxCell id="eM-ZfgMRJev5hYLbkpdu-24" value="S&lt;sub&gt;3&lt;/sub&gt;" style="ellipse;whiteSpace=wrap;html=1;aspect=fixed;fontSize=30;fontFamily=Times New Roman;" parent="2zSMVQ2vW_HQd2-LEBrB-111" vertex="1">
          <mxGeometry x="35" y="330" width="60" height="60" as="geometry" />
        </mxCell>
        <mxCell id="eM-ZfgMRJev5hYLbkpdu-25" value="S&lt;sub&gt;p&lt;/sub&gt;" style="ellipse;whiteSpace=wrap;html=1;aspect=fixed;fontSize=25;fontFamily=Times New Roman;" parent="2zSMVQ2vW_HQd2-LEBrB-111" vertex="1">
          <mxGeometry x="35" y="490" width="60" height="60" as="geometry" />
        </mxCell>
        <mxCell id="eM-ZfgMRJev5hYLbkpdu-26" value="" style="endArrow=none;dashed=1;html=1;dashPattern=1 3;strokeWidth=2;rounded=0;fontFamily=Times New Roman;" parent="2zSMVQ2vW_HQd2-LEBrB-111" edge="1">
          <mxGeometry width="50" height="50" relative="1" as="geometry">
            <mxPoint x="64.58000000000004" y="470" as="sourcePoint" />
            <mxPoint x="65" y="410" as="targetPoint" />
          </mxGeometry>
        </mxCell>
        <mxCell id="2zSMVQ2vW_HQd2-LEBrB-118" value="1" style="text;html=1;align=center;verticalAlign=middle;resizable=0;points=[];autosize=1;strokeColor=none;fillColor=none;fontSize=19;fontFamily=Times New Roman;" parent="2zSMVQ2vW_HQd2-LEBrB-111" vertex="1">
          <mxGeometry x="90" y="89.33000000000004" width="30" height="40" as="geometry" />
        </mxCell>
        <mxCell id="2zSMVQ2vW_HQd2-LEBrB-119" value="1" style="text;html=1;align=center;verticalAlign=middle;resizable=0;points=[];autosize=1;strokeColor=none;fillColor=none;fontSize=19;fontFamily=Times New Roman;" parent="2zSMVQ2vW_HQd2-LEBrB-111" vertex="1">
          <mxGeometry x="90" y="194.00000000000006" width="30" height="40" as="geometry" />
        </mxCell>
        <mxCell id="2zSMVQ2vW_HQd2-LEBrB-120" value="1" style="text;html=1;align=center;verticalAlign=middle;resizable=0;points=[];autosize=1;strokeColor=none;fillColor=none;fontSize=19;fontFamily=Times New Roman;" parent="2zSMVQ2vW_HQd2-LEBrB-111" vertex="1">
          <mxGeometry x="90" y="300.00000000000006" width="30" height="40" as="geometry" />
        </mxCell>
        <mxCell id="2zSMVQ2vW_HQd2-LEBrB-131" value="1" style="text;html=1;align=center;verticalAlign=middle;resizable=0;points=[];autosize=1;strokeColor=none;fillColor=none;fontSize=19;fontFamily=Times New Roman;" parent="2zSMVQ2vW_HQd2-LEBrB-111" vertex="1">
          <mxGeometry x="90" y="470" width="30" height="40" as="geometry" />
        </mxCell>
        <mxCell id="2zSMVQ2vW_HQd2-LEBrB-112" value="&lt;span style=&quot;forced-color-adjust: none; color: rgb(0, 0, 0); font-size: 14px; font-style: normal; font-variant-ligatures: normal; font-variant-caps: normal; font-weight: 400; letter-spacing: normal; orphans: 2; text-indent: 0px; text-transform: none; widows: 2; word-spacing: 0px; -webkit-text-stroke-width: 0px; white-space: nowrap; text-decoration-thickness: initial; text-decoration-style: initial; text-decoration-color: initial; font-family: &amp;quot;Times New Roman&amp;quot;; text-align: center; background-color: rgb(251, 251, 251); float: none; display: inline !important;&quot;&gt;u&lt;sub&gt;2&lt;/sub&gt;&lt;/span&gt;&lt;span style=&quot;forced-color-adjust: none; color: rgb(0, 0, 0); font-size: 14px; font-style: normal; font-variant-ligatures: normal; font-variant-caps: normal; font-weight: 400; letter-spacing: normal; orphans: 2; text-indent: 0px; text-transform: none; widows: 2; word-spacing: 0px; -webkit-text-stroke-width: 0px; white-space: nowrap; text-decoration-thickness: initial; text-decoration-style: initial; text-decoration-color: initial; font-family: &amp;quot;Times New Roman&amp;quot;; text-align: center; background-color: rgb(251, 251, 251); float: none; display: inline !important;&quot;&gt;-l&lt;sub&gt;2&lt;/sub&gt;&lt;/span&gt;" style="text;whiteSpace=wrap;html=1;fontSize=14;" parent="1" vertex="1">
          <mxGeometry x="151" y="461" width="50" height="40" as="geometry" />
        </mxCell>
        <mxCell id="2zSMVQ2vW_HQd2-LEBrB-113" value="" style="endArrow=classic;html=1;rounded=0;" parent="1" edge="1">
          <mxGeometry width="50" height="50" relative="1" as="geometry">
            <mxPoint x="600" y="560" as="sourcePoint" />
            <mxPoint x="810" y="680" as="targetPoint" />
          </mxGeometry>
        </mxCell>
        <mxCell id="2zSMVQ2vW_HQd2-LEBrB-114" value="" style="endArrow=classic;html=1;rounded=0;" parent="1" edge="1">
          <mxGeometry width="50" height="50" relative="1" as="geometry">
            <mxPoint x="600" y="440" as="sourcePoint" />
            <mxPoint x="810" y="440" as="targetPoint" />
          </mxGeometry>
        </mxCell>
        <mxCell id="2zSMVQ2vW_HQd2-LEBrB-115" value="" style="endArrow=classic;html=1;rounded=0;" parent="1" edge="1">
          <mxGeometry width="50" height="50" relative="1" as="geometry">
            <mxPoint x="600" y="540" as="sourcePoint" />
            <mxPoint x="810" y="540.33" as="targetPoint" />
          </mxGeometry>
        </mxCell>
        <mxCell id="2zSMVQ2vW_HQd2-LEBrB-116" value="" style="endArrow=classic;html=1;rounded=0;" parent="1" edge="1">
          <mxGeometry width="50" height="50" relative="1" as="geometry">
            <mxPoint x="590" y="680" as="sourcePoint" />
            <mxPoint x="810" y="460" as="targetPoint" />
          </mxGeometry>
        </mxCell>
        <mxCell id="eM-ZfgMRJev5hYLbkpdu-16" value="Candidats" style="text;html=1;align=center;verticalAlign=middle;resizable=0;points=[];autosize=1;strokeColor=none;fillColor=none;fontSize=30;fontFamily=Times New Roman;" parent="1" vertex="1">
          <mxGeometry x="480" y="210" width="140" height="50" as="geometry" />
        </mxCell>
        <mxCell id="2zSMVQ2vW_HQd2-LEBrB-137" value="&lt;span style=&quot;background-color: initial; font-size: 22px;&quot;&gt;Figure: Graphe de la modélisation&lt;/span&gt;" style="text;html=1;align=center;verticalAlign=middle;resizable=0;points=[];autosize=1;strokeColor=none;fillColor=none;fontSize=22;" parent="1" vertex="1">
          <mxGeometry x="300" y="770" width="350" height="40" as="geometry" />
        </mxCell>
        <mxCell id="UUsWTZ1-7thahSQk5fBN-4" value="" style="shape=image;verticalLabelPosition=bottom;labelBackgroundColor=default;verticalAlign=top;aspect=fixed;imageAspect=0;image=data:image/png,iVBORw0KGgoAAAANSUhEUgAAAM0AAACACAIAAAAnGHqMAAAACXBIWXMAAA7EAAAOxAGVKw4bAAASZ0lEQVR4nO2de1QTx9vHh3BRouAFtS0UFC+oFNpKRIOteFdstbXWS/EoRTnWagUsWKSgQrWCFbBeWm8HpVoPqIVUrFLlKCjGqiBWpCJECJRyKQohBIpcspv3j2n35E0gLMnubOJvPn9tZiczT5JvZmeemXnGTKVSAQyGZXhcG4D5nwDrDIMCrDMMCrDOMCjAOsOgAOsMgwKsMwwKsM4wKMA6w6AA6wyDAqwzDAqwzjAowDrDoADrDIMCrDMMCrDOuEGhUFy8eLHLWzU1NeHh4bNnz545c2ZgYODjx48R28YGWGdI6ejoqKysPHXq1PLly5OTk7Uz1NTU+Pn5dXZ2/vzzz5cvX3ZxcQkICLh37x56U5nFDK+nRUZOTk5ISIiVldWIESMkEomLi4u21DZt2vTw4cNLly5ZW1vDFH9/f5lMJhKJLCwskJvMGLg9Q8fEiRPT09OvX7++adOmLjNUVlaKxWJPT09KZAAAb2/vmpoasViMykxWwDpDB5/Pd3BwsLKy6i7DrVu3AAAvvfSSeuKwYcMAAL/99hvb5rEK1pkRUVJSAgDo37+/emK/fv2oW6YL1pkR8ffffwMANPph8CW8ZbpgnRkRLS0tQEtnPB4PAKBQKLixiSGwzoyIjo4OAICZmZl6InzZ2dlp0p4BrDPO0NYNbLq6hMfjaejPtMA64wxtnfXt21c7nSRJ6pbpgnXGGdo6GzJkCACgs7NTPVGpVFK3TBesM87Q1pmTkxP4bzRA0dzcDAB49dVXkRnGBlhnRsSbb74JAGhoaFBPlMlk1C3TBeuMM7TbM6FQOGDAgCdPnqgnSiQSMzOzOXPmIDSNebDO0EGSZGtrq0KhKC0tBQA0NzeXl5e3tra2t7fDDFZWVuvWrXvy5AmcgAIAVFRUXL9+fcmSJY6OjpzZzQR4vQY6JBLJihUrtNM9PDyOHTsGr1UqVUJCgkgkWrRoUb9+/UQikVAo3LZtm6mPN7HOjJGysrL8/PzOzs4JEya4urpybQ4DYJ1hUID7ZxgUYJ1hUIB1hkEB1hkGBVhnGBRgnWFQgHWGQYEJbwk0KkJCQmpqalT/H3hL+0Ibvb2YY8aMiYuL0++9KME6Y4Znz57BWUsKW1vb0aNH636XSqUiSZLSJbwmCIIgiM7OzpaWlsbGRt0SrKqqKikpGTt2LAOfgU3wfAAzSCQSf39/uMAfYmFhcfz48ddee82QYpVKZX19fW1tbUlJyePHjx88eFBdXa2RZ+HChVFRUYbUggCsM8ZISUlJSEhQT3FwcEhOToYbMJlCIpFcvXo1NTWV2gFlZWWVkZExcOBABmthHPPo6GiubXhBcHd3LyoqqqyspFKam5tra2tnzZrFYC12dnaenp5Lly61trYuLCxUKpUEQfTv33/ChAkM1sI4eLzJJNHR0RoL+a9cufLLL78wXhGfz1+zZk1KSsq4ceMAAGlpaXC7itFiRDrLzMy8e/cu11YYxMCBA3fs2KGxPW7Pnj3qjRyDODo6Hjt2bOLEiXV1dTdu3GCjCnXKy8uTk5MJgtDjvcaisyNHjsTExAwdOpRrQwxl0qRJfn5+6inPnz//8ssvNXYxMQWfz4+Li3Nycjp79iwb5aszZMiQ1NTUkJAQPT6LUejs1KlTJ06ciI2NHTlyJNe2MMD69evd3NzUU0pKSg4cOMBSdTY2NpGRkfn5+RqOFTYq2r9/f2Fh4ZYtW3r7mOZ+vHnr1q3g4GBfX9/Q0FBuLWGQmpoaX1/ff/75Rz1x3759b7/9Nks1nj171snJycvLS0ee1NTUW7duNTU1yeVyuVxub29/+vTp3lZ0+fLlrVu3+vv7b9y4kf67OG7P5HL5jh07hg4d+tlnn3FrCbPY29tHRkZqJEZHRz979oylGpcvX65bZACA+/fvS6VSOChWKBQuLi56VOTj4zNlypSTJ0/m5ubSfxfHOjt8+HBDQ8Pq1atNfZ+FNnPnzl24cKF6ilwu3759O4cDw5iYmPT09E8//RS+FAgE+pWzfv16lUoVFxcH98rTgUud1dbWpqen29raLlq0iEMz2CMsLAxuMafIy8v74YcfODLnX4qKiuCFh4eHfiWMHz/e09OzvLy8u5Dh2nCps9OnTyuVSh8fHx2hNE0aa2vr2NhYS0tL9cSjR48WFhZyZZJKpbp//z4AwN7e/pVXXtG7nPfeew8A0GXI8C7hTGcEQWRmZgIAZs+ezZUNCBg7dmxgYKB6CkEQkZGRGkE0kFFaWiqXywEAEydONKScadOmWVhYSKVSmv8ZznR29+7dxsZGPp//+uuvc2UDGlasWKExzKypqYmJieHEmLy8PHhhoM6oHy47O5tOfs50Bs9ecHNzM+mw+DSJiorSmI/KzMy8cOECekuoIy88PT0NLAqGlrlz5w6dzJzpDPZGx4wZoyOPSCSaP3/+jBkz4CpCAEBra+uhQ4cWLlwoFAqXLFmSnJxs5PN6kEGDBnU5H1VRUYHSDJIkf//9dwDA8OHDDZ96gW6RsrKytra2HjPzOPHTqlQqeGyRjgmArKys+Pj4NWvWeHl55eTkBAUFlZSUfPTRRzdu3Fi9evXu3btffvnlvXv3btmyhf7omkMmTZq0atUq9ZS2traIiAj1JWtsU1xcDKOpGd6Ygf9+O4IgysrKeszMO3funOFV9pa6ujroK4eHMGhDkuTBgwd9fX2XLl3q4+MDAKioqPDz8/P09ExOTl68ePH06dP37NnD5/Ozs7Ppj3q4ZcOGDRrzURKJ5ODBg8gMoB6akyZNMrw0qicAHzW64SUmJqJvD5qamuBFd+Ew8/Pzq6qqlixZAgCor6+HidOmTdu6dau5uTl8yefzR4wYAQBIS0tj22BGMDc337Vrl8ayx5SUFCoKFdtAnZmZmentoVXH1ta2T58+AIC6uroeM/MaGxvRH4cGW2/w32Ef2mRnZ48bNw46eB4+fAgTP//8c42Y0/ChX11dzZWboLc4ODhERERoJEZHR2vEcGQDgiAePHgAAHBxcRkwYIDuzAqFIjc3t8clQPAcKjpfPg8AQOeER5VK1aEv2l1ASmfdeWiFQmFQUBC8ht9Ol37FqqoqeNFjV1Rv4xkfZ8ybNw86OSkaGxujoqLY7ig/evSotbUV0PNoBAQEbNiw4dq1a7qzwZ+PzjjAAgBAZ3I3Li5O757csmXLwsLC1FOoBUzdRcz39vaGF/X19VBM2t9OZWUl1KuZmdmgQYN0GJCVlaVhAH1GjhzJeBc2LCyssLCwvLycSrlz5052dvbMmTOZrUgd+h4NkiQtLCyGDx/eY1Bc6JOi81e0GDZsGB0P1sqVK/XuPGrv+qKasR5XzMFxOOhKZ3D+BAAwevRoqtPWJUKhMCEhQb8GQ+P0OEbo27fv7t27/fz8qIihHh4e7C0ZgkCdmZub9zityePxUlJS6JQJ7dc4+KxLLDIyMuiUaG9vb29vTycnHajVGdQX3R3woQm60hm1LmXKlCm6C+Hz+dOmTeu1lWwyatSozZs379q1CwAwYsSI+Ph4Vid5Ozs7CwoKAACurq58Pp+pYqFTho7OuPHTDh48GF7AuTYdwPbM0dFRwwOiVCpv374NALC0tFy2bBk7ZrILHNMMHjz4wIEDtra2rNZVWFgI/9LU3/Xq1asGDp6USiUswcbGpsfM3OiM6tE/ffpUR7aWlha4Fll701hOTg7snH3wwQdsPNrYJjc3d/fu3dbW1vv372fwQdEdVOcMejQkEkl4eLh2v1wkEq1cuXLBggUbNmygfE/dUV9fD7sidL5/3ubNm6nRHzJsbGxgk6bbxVdQUAD7mBp/d6VSCQNUu7i4UMNSE0IqlYaFhZEkGRsbO378eAQ1wlk+Ho8HJ7+zsrIcHBycnZ3V8xw9erS4uDgpKSkiIiI3N/fMmTO6y4S/nZmZGZ2PwCNJkk67xzgwjLTGmQwaUD39jIwM9UY+ISGhtLR06NCh8fHxJrcQt6GhITg4uKWlZcuWLWz3/SngbvX+/fvz+fyOjo4LFy68//776hkePXqUl5cXHh5uaWkJBdRj1xk+ahwdHWk9N7dt26a/+QYAx8zFxcU68sDOmZ2dnUqlCgwMFIvFWVlZGzdu/Omnn9zd3ZOSkhA8cZjl+fPnmzZtqq2t9ff3//DDD5HVO2/ePACAQqFIT0+Pjo42MzNbvny5egaZTBYWFgbdTPAh26ObDf52GjNp3aLiCKlUKhAIBAJBXV1dlxna2tqEQqFAINi2bVtZWdn69eunTJkya9astWvXXrp0iSAIxAYbDkEQwcHBAoEgIiJCPUwQGn799ddly5Z5eXmtXr1aKpV2l40giJkzZwqFwtbWVt0FvvPOOwKBICsri07tnK39cnZ2Hj16dGlpqVgsXrx4sXaGP/74A3rX3N3dR44ceejQIeQ2Msw333wjFos9PDxgi4K4dh8fH7giQTclJSVNTU0eHh5wTqk7SktL6+rqbGxs3nrrLTq1c7k/APojLl261OVdqnNGt2U2bk6ePJmWlubs7BwfH6+xY8CogKEnhEKh7mxwB8qCBQtouv241Nm77747bNiwgoKCLhcwwc6ZlZWV7rWQJkFmZuZ3331nZ2eHwFVmIHR01t7enpGR0adPn48//phmsVzqrE+fPtArQZ2iRUH5r8eOHWvqC7vv378fFRXVt2/fffv2GbLFCAHt7e0FBQUDBgyAYYi649y5czKZzNfXl/4pxxzvE/bx8fH29s7KyqLmMSGPHj2C42pTP0VLKpVu3ryZIAhWXWUkSQYEBBgeyiU/P7+jo2Py5MndrW8AAMhksqSkpFGjRn3yySf0S+Y+jkt0dLS9vf3OnTvh8hKxWLx3715qO1BhYeGBAwdOnDjBqY16Ul9fHxwcrFAowsPDWXWVXbx4saCggGaXXAdwU4nu+AkxMTEEQezatatXE7Lc68zW1vbw4cPt7e3bt29XqVQpKSnJyclSqRTeLSoqOnXqVI8LoYyQ1tbW4OBg6CrrckDNFNXV1fv27XvjjTf0OENdqVRGRkauWrVKJpO1tbVdvXrV1tZWx5qDxMTE27dvf/vttz2GeNakVz4Y9qiqqlq8ePHZs2fb29vh6kKuLTIIpVIZGBiIwFVWVVUF/VhpaWl6vL2goEAgEEydOrW6ujo0NNTLy+vmzZvdZX7w4MGMGTPu3bunR0Xcx6V6Ifn666/Pnz/v4eHx/fffs+fFuHnz5s6dO2UymZWV1ZUrV/SYP2xrawsPD5dIJBYWFm5ubmvXrtWY9GQK0x7KGSeJiYnnz593dnZOSEhgSWR//vnn8ePHqbWD3t7e+k1Sw1Ewo6Z1DdYZw2RkZBw5cgS6yhhfoNDc3CwWi69du5aTk6O+WnrBggXMVsQ4WGdMkp+fv3PnTktLy6+++qpfv350Flyp1E7lgZAkSRBEe3t7c3NzU1NTfX19XV3dX3/99eTJk7KyMu09SHZ2dj2uKOYcrDPGqKio+OKLL+CcbK9iahrI/Pnzdbi7jARjt89UaGhoCAoKos4oQYlG1EjjBOuMGbZv305n+z/jjBs3btSoUejr7S3Yr8EYJElSrjLwX38L0DsXEQIXC1FLhjReqidSFzwez/gfmgDrDIMGE/grYF4AsM4wKMA6w6AA6wyDAqwzDAqwzjAowDozPUiSFIlELB3oyRJ4fpN1FApFcXGxQCDQHaStR0iSfPr0aUFBwY8//lhcXDxnzhxj3p+nAdYZ6wQEBJSXl8fExMydO1fvQlpaWmbMmAEAcHV11R0swjjBOmMX+jE4dcPn81NTU+3s7KytrSdPnsyUecjAOmMX+jE4eyxn+PDhAIAeY2AbJ3gcgEEB1hkGBfi5yRYikUgkEsnlcicnp9jY2B6PhnixwTpjhaNHjzY0NCQlJeXl5QUFBZ05c2bdunXw1t69e1NTU2mW4+rqmpiYyJqZ6MA6Yx4Yg/PYsWM8Hk87BmdISEhISIjhtZjWwkHcP2MePWJwvvDg9ox5pk6dCi9IkszLy7O0tNSOS284uD3D/AuMwenu7q47Bqd+mJbOcHvGIl3GRkxISKAfqMzNza27mFxYZ5h/6VJnoaGhoaGhhhduWjrDz022oBmDkz7Pnz9vaWmhJtEfP37c3NwMj9Q0fnB7xhYwBuf06dOZ2l85f/589UNhgoOD4QX646D1AOuMLejE4OwV169fZ6oo9ODnJmP0Ngbn/xS4PWOMoqKiK1eu8Pn8tra2mJgYuVy+Z88eIz8tABk47gFjIIvBaYpgnWFQgPtnGBRgnWFQgHWGQQHWGQYFWGcYFGCdYVCAdYZBAdYZBgVYZxgU/B/05XgdnFjBaAAAAABJRU5ErkJggg==;clipPath=inset(10.94% 0% 2.34% 5.61%);" parent="1" vertex="1">
          <mxGeometry x="-20" y="401" width="96" height="55.06976744186046" as="geometry" />
        </mxCell>
        <mxCell id="2zSMVQ2vW_HQd2-LEBrB-71" value="" style="group" parent="1" vertex="1" connectable="0">
          <mxGeometry x="70" y="340" width="180" height="120" as="geometry" />
        </mxCell>
        <mxCell id="eM-ZfgMRJev5hYLbkpdu-28" value="" style="endArrow=classic;html=1;rounded=0;fontFamily=Times New Roman;" parent="2zSMVQ2vW_HQd2-LEBrB-71" edge="1">
          <mxGeometry width="50" height="50" relative="1" as="geometry">
            <mxPoint x="129.02324109368897" y="33.98296118727086" as="sourcePoint" />
            <mxPoint x="180" as="targetPoint" />
          </mxGeometry>
        </mxCell>
        <mxCell id="2zSMVQ2vW_HQd2-LEBrB-2" value="" style="endArrow=none;html=1;rounded=0;endFill=0;fontFamily=Times New Roman;" parent="2zSMVQ2vW_HQd2-LEBrB-71" edge="1">
          <mxGeometry width="50" height="50" relative="1" as="geometry">
            <mxPoint y="120" as="sourcePoint" />
            <mxPoint x="90" y="60" as="targetPoint" />
          </mxGeometry>
        </mxCell>
        <mxCell id="2zSMVQ2vW_HQd2-LEBrB-21" value="" style="group;fontSize=14;fontFamily=Times New Roman;" parent="2zSMVQ2vW_HQd2-LEBrB-71" vertex="1" connectable="0">
          <mxGeometry x="83.00135283027532" y="24.997469443058662" width="57.91864716972469" height="48.49253055694135" as="geometry" />
        </mxCell>
        <mxCell id="2zSMVQ2vW_HQd2-LEBrB-8" value="" style="triangle;whiteSpace=wrap;html=1;rotation=-35;fontFamily=Times New Roman;fontSize=14;" parent="2zSMVQ2vW_HQd2-LEBrB-21" vertex="1">
          <mxGeometry x="41.91864716972469" y="1.6625305569413626" width="10" height="13.33" as="geometry" />
        </mxCell>
        <mxCell id="2zSMVQ2vW_HQd2-LEBrB-9" value="" style="triangle;whiteSpace=wrap;html=1;rotation=-35;fontFamily=Times New Roman;fontSize=14;" parent="2zSMVQ2vW_HQd2-LEBrB-21" vertex="1">
          <mxGeometry x="2.918647169724693" y="26.492530556941347" width="10" height="13.33" as="geometry" />
        </mxCell>
        <mxCell id="2zSMVQ2vW_HQd2-LEBrB-19" value="" style="endArrow=none;dashed=1;html=1;dashPattern=1 3;strokeWidth=2;rounded=0;fontFamily=Times New Roman;fontSize=14;" parent="2zSMVQ2vW_HQd2-LEBrB-21" edge="1">
          <mxGeometry width="50" height="50" relative="1" as="geometry">
            <mxPoint x="11.918647169724693" y="30.752530556941338" as="sourcePoint" />
            <mxPoint x="41.91864716972469" y="10.82253055694133" as="targetPoint" />
          </mxGeometry>
        </mxCell>
        <mxCell id="2zSMVQ2vW_HQd2-LEBrB-20" value="u&lt;span style=&quot;font-size: 14px;&quot;&gt;&lt;sub style=&quot;font-size: 14px;&quot;&gt;1&lt;/sub&gt;&lt;/span&gt;-l&lt;span style=&quot;font-size: 14px;&quot;&gt;&lt;sub style=&quot;font-size: 14px;&quot;&gt;1&lt;/sub&gt;&lt;/span&gt;" style="text;html=1;align=center;verticalAlign=middle;resizable=0;points=[];autosize=1;strokeColor=none;fillColor=none;fontFamily=Times New Roman;fontSize=14;" parent="2zSMVQ2vW_HQd2-LEBrB-21" vertex="1">
          <mxGeometry x="7.918647169724693" y="18.492530556941347" width="50" height="30" as="geometry" />
        </mxCell>
        <mxCell id="UUsWTZ1-7thahSQk5fBN-5" value="" style="triangle;whiteSpace=wrap;html=1;rotation=0;fontFamily=Times New Roman;" parent="1" vertex="1">
          <mxGeometry x="710" y="313.34" width="10" height="13.33" as="geometry" />
        </mxCell>
        <mxCell id="UUsWTZ1-7thahSQk5fBN-6" value="" style="triangle;whiteSpace=wrap;html=1;rotation=30;fontFamily=Times New Roman;" parent="1" vertex="1">
          <mxGeometry x="720" y="376" width="10" height="13.33" as="geometry" />
        </mxCell>
        <mxCell id="UUsWTZ1-7thahSQk5fBN-8" value="" style="triangle;whiteSpace=wrap;html=1;rotation=0;fontFamily=Times New Roman;" parent="1" vertex="1">
          <mxGeometry x="720" y="433" width="10" height="13.33" as="geometry" />
        </mxCell>
        <mxCell id="UUsWTZ1-7thahSQk5fBN-9" value="" style="triangle;whiteSpace=wrap;html=1;rotation=0;fontFamily=Times New Roman;" parent="1" vertex="1">
          <mxGeometry x="700" y="533" width="10" height="13.33" as="geometry" />
        </mxCell>
        <mxCell id="UUsWTZ1-7thahSQk5fBN-11" value="" style="triangle;whiteSpace=wrap;html=1;rotation=-45;fontFamily=Times New Roman;" parent="1" vertex="1">
          <mxGeometry x="757" y="501" width="10" height="13.33" as="geometry" />
        </mxCell>
        <mxCell id="UUsWTZ1-7thahSQk5fBN-12" value="" style="triangle;whiteSpace=wrap;html=1;rotation=30;fontFamily=Times New Roman;" parent="1" vertex="1">
          <mxGeometry x="729" y="630" width="10" height="13.33" as="geometry" />
        </mxCell>
      </root>
    </mxGraphModel>
  </diagram>
</mxfile>
